<svg xmlns="http://www.w3.org/2000/svg" viewBox="54.01 540.73 43.95 13.85"><path fill-rule="nonzero" fill="currentColor" d="M 97 541.234375 L 92.15625 549.773438 C 91.328125 551.5625 90.007812 553.191406 89.039062 553.191406 C 88.660156 553.191406 88.566406 552.957031 88.566406 552.601562 C 88.566406 552.296875 88.78125 551.777344 88.898438 551.421875 C 90.125 548.382812 92.128906 544.632812 92.128906 542.699219 C 92.128906 541.800781 91.65625 541.234375 90.785156 541.234375 C 89.207031 541.234375 87.363281 543.097656 84.773438 548.570312 L 84.605469 548.570312 C 85.667969 546.164062 86.777344 544.019531 86.777344 542.652344 C 86.777344 541.824219 86.328125 541.234375 85.574219 541.234375 C 84.015625 541.234375 82.414062 543.097656 79.820312 548.570312 L 79.632812 548.570312 L 81.1875 544.277344 C 81.472656 543.476562 81.707031 542.839844 81.707031 542.34375 C 81.707031 541.777344 81.398438 541.28125 80.785156 541.28125 C 79.300781 541.28125 77.699219 543.238281 76.730469 545.101562 L 74.46875 549.773438 C 73.644531 551.5625 72.582031 553.191406 71.617188 553.191406 C 71.238281 553.191406 71.144531 552.957031 71.144531 552.601562 C 71.144531 552.296875 71.355469 551.777344 71.472656 551.421875 C 72.699219 548.382812 74.707031 544.632812 74.707031 542.699219 C 74.707031 541.800781 74.234375 541.234375 73.359375 541.234375 C 71.78125 541.234375 69.941406 543.097656 67.347656 548.570312 L 67.183594 548.570312 C 68.242188 546.164062 69.351562 544.019531 69.351562 542.652344 C 69.351562 541.824219 68.902344 541.234375 68.148438 541.234375 C 66.59375 541.234375 64.988281 543.097656 62.394531 548.570312 L 62.207031 548.570312 L 63.765625 544.277344 C 64.046875 543.476562 64.28125 542.839844 64.28125 542.34375 C 64.28125 541.777344 63.976562 541.28125 63.363281 541.28125 C 61.878906 541.28125 60.273438 543.238281 59.308594 545.101562 L 54.507812 553.945312 L 54.929688 553.945312 L 59.804688 545.101562 C 60.605469 543.6875 61.808594 542.15625 62.609375 542.15625 C 62.820312 542.15625 62.960938 542.25 62.960938 542.605469 C 62.960938 542.886719 62.703125 543.664062 62.492188 544.277344 L 59.167969 553.945312 L 60.511719 553.945312 C 63.953125 545.148438 66.355469 542.320312 67.464844 542.320312 C 67.84375 542.320312 68.03125 542.605469 68.03125 543.191406 C 68.03125 544.136719 67.089844 546.351562 66.191406 548.664062 L 64.140625 553.945312 L 65.484375 553.945312 C 66.261719 551.964844 66.96875 550.265625 67.652344 548.851562 C 70.011719 544.019531 71.804688 542.320312 72.675781 542.320312 C 73.054688 542.320312 73.242188 542.605469 73.242188 543.191406 C 73.242188 544.464844 71.546875 548.003906 70.199219 551.398438 C 70.011719 551.917969 69.800781 552.4375 69.800781 552.859375 C 69.800781 553.566406 70.128906 554.085938 71.050781 554.085938 C 72.628906 554.085938 74.140625 551.800781 74.964844 549.773438 L 77.226562 545.101562 C 78.027344 543.6875 79.230469 542.15625 80.03125 542.15625 C 80.246094 542.15625 80.386719 542.25 80.386719 542.605469 C 80.386719 542.886719 80.128906 543.664062 79.914062 544.277344 L 76.589844 553.945312 L 77.933594 553.945312 C 81.375 545.148438 83.78125 542.320312 84.890625 542.320312 C 85.265625 542.320312 85.457031 542.605469 85.457031 543.191406 C 85.457031 544.136719 84.511719 546.351562 83.617188 548.664062 L 81.566406 553.945312 L 82.910156 553.945312 C 83.6875 551.964844 84.394531 550.265625 85.078125 548.851562 C 87.4375 544.019531 89.226562 542.320312 90.101562 542.320312 C 90.476562 542.320312 90.667969 542.605469 90.667969 543.191406 C 90.667969 544.464844 88.96875 548.003906 87.625 551.398438 C 87.4375 551.917969 87.222656 552.4375 87.222656 552.859375 C 87.222656 553.566406 87.554688 554.085938 88.472656 554.085938 C 90.054688 554.085938 91.824219 551.800781 92.648438 549.773438 L 97.457031 541.234375 Z M 97 541.234375 "/></svg>