<svg xmlns="http://www.w3.org/2000/svg" viewBox="54.01 54.33 104.18 33.95"><path fill-rule="nonzero" fill="currentColor" d="M 60.804688 69.804688 L 56.820312 57.207031 L 56.820312 69.804688 L 54.507812 69.804688 L 54.507812 54.832031 L 58.285156 54.832031 L 62.023438 67.058594 L 65.761719 54.832031 L 69.542969 54.832031 L 69.542969 69.804688 L 67.226562 69.804688 L 67.226562 57.207031 L 63.242188 69.804688 Z M 60.804688 69.804688 "/><path fill-rule="nonzero" fill="currentColor" d="M 75.101562 64.539062 L 80.183594 64.539062 L 77.621094 57.390625 Z M 76.402344 54.832031 L 79.003906 54.832031 L 84.644531 69.804688 L 82.082031 69.804688 L 80.90625 66.519531 L 74.398438 66.519531 L 73.242188 69.804688 L 70.847656 69.804688 Z M 76.402344 54.832031 "/><path fill-rule="nonzero" fill="currentColor" d="M 88.324219 67.800781 L 96.050781 67.800781 L 96.050781 69.804688 L 85.96875 69.804688 L 85.96875 54.832031 L 88.324219 54.832031 Z M 88.324219 67.800781 "/><path fill-rule="nonzero" fill="currentColor" d="M 99.71875 69.804688 L 97.363281 69.804688 L 97.363281 54.832031 L 99.71875 54.832031 Z M 99.71875 69.804688 "/><path fill-rule="nonzero" fill="currentColor" d="M 104.890625 67.863281 L 108.546875 67.863281 C 110.542969 67.863281 111.542969 67.039062 111.542969 65.386719 C 111.542969 64.558594 111.285156 63.953125 110.777344 63.566406 C 110.269531 63.183594 109.484375 62.988281 108.421875 62.988281 L 104.890625 62.988281 Z M 104.890625 61.171875 L 108.339844 61.171875 C 110.101562 61.171875 110.984375 60.40625 110.984375 58.878906 C 110.984375 58.191406 110.746094 57.667969 110.269531 57.308594 C 109.796875 56.953125 109.152344 56.773438 108.339844 56.773438 L 104.890625 56.773438 Z M 102.535156 54.832031 L 108.050781 54.832031 C 111.589844 54.832031 113.359375 56.082031 113.359375 58.589844 C 113.359375 59.292969 113.207031 59.941406 112.90625 60.53125 C 112.601562 61.125 112.203125 61.558594 111.707031 61.832031 C 113.207031 62.507812 113.957031 63.691406 113.957031 65.386719 C 113.957031 66.886719 113.453125 67.996094 112.449219 68.71875 C 111.445312 69.445312 110.121094 69.804688 108.484375 69.804688 L 102.535156 69.804688 Z M 102.535156 54.832031 "/><path fill-rule="nonzero" fill="currentColor" d="M 118.132812 54.832031 L 118.132812 63.816406 C 118.132812 65.289062 118.410156 66.371094 118.960938 67.058594 C 119.511719 67.746094 120.46875 68.089844 121.832031 68.089844 C 123.179688 68.089844 124.136719 67.722656 124.703125 66.984375 C 125.265625 66.25 125.550781 65.136719 125.550781 63.648438 L 125.550781 54.832031 L 127.902344 54.832031 L 127.902344 63.527344 C 127.902344 65.8125 127.433594 67.476562 126.488281 68.515625 C 125.546875 69.554688 123.992188 70.074219 121.832031 70.074219 C 119.683594 70.074219 118.136719 69.585938 117.195312 68.617188 C 116.25 67.648438 115.78125 65.992188 115.78125 63.648438 L 115.78125 54.832031 Z M 118.132812 54.832031 "/><path fill-rule="nonzero" fill="currentColor" d="M 60.804688 87.507812 L 56.820312 74.910156 L 56.820312 87.507812 L 54.507812 87.507812 L 54.507812 72.535156 L 58.285156 72.535156 L 62.023438 84.761719 L 65.761719 72.535156 L 69.542969 72.535156 L 69.542969 87.507812 L 67.226562 87.507812 L 67.226562 74.910156 L 63.242188 87.507812 Z M 60.804688 87.507812 "/><path fill-rule="nonzero" fill="currentColor" d="M 72.359375 72.535156 L 82.726562 72.535156 L 82.726562 74.539062 L 74.714844 74.539062 L 74.714844 78.8125 L 82.273438 78.8125 L 82.273438 80.796875 L 74.714844 80.796875 L 74.714844 85.503906 L 82.726562 85.503906 L 82.726562 87.507812 L 72.359375 87.507812 Z M 72.359375 72.535156 "/><path fill-rule="nonzero" fill="currentColor" d="M 87.847656 82.242188 L 92.929688 82.242188 L 90.371094 75.09375 Z M 89.152344 72.535156 L 91.753906 72.535156 L 97.390625 87.507812 L 94.832031 87.507812 L 93.652344 84.226562 L 87.148438 84.226562 L 85.992188 87.507812 L 83.59375 87.507812 Z M 89.152344 72.535156 "/><path fill-rule="nonzero" fill="currentColor" d="M 102.703125 74.476562 L 101.070312 74.476562 L 101.070312 85.566406 L 102.703125 85.566406 C 103.378906 85.566406 103.972656 85.53125 104.480469 85.464844 C 104.988281 85.394531 105.519531 85.246094 106.070312 85.019531 C 106.621094 84.792969 107.070312 84.484375 107.421875 84.101562 C 107.773438 83.714844 108.0625 83.175781 108.289062 82.480469 C 108.519531 81.785156 108.632812 80.960938 108.632812 80.011719 C 108.632812 79.0625 108.519531 78.242188 108.289062 77.554688 C 108.0625 76.863281 107.773438 76.324219 107.421875 75.933594 C 107.070312 75.539062 106.621094 75.234375 106.070312 75.011719 C 105.519531 74.792969 104.988281 74.648438 104.480469 74.578125 C 103.972656 74.511719 103.378906 74.476562 102.703125 74.476562 M 102.808594 72.535156 C 104.058594 72.535156 105.164062 72.65625 106.121094 72.90625 C 107.078125 73.152344 107.941406 73.554688 108.703125 74.105469 C 109.46875 74.65625 110.054688 75.425781 110.460938 76.417969 C 110.867188 77.410156 111.070312 78.605469 111.070312 80.011719 C 111.070312 81.414062 110.867188 82.617188 110.460938 83.613281 C 110.054688 84.613281 109.46875 85.386719 108.703125 85.9375 C 107.941406 86.488281 107.078125 86.890625 106.121094 87.136719 C 105.164062 87.386719 104.058594 87.507812 102.808594 87.507812 L 98.71875 87.507812 L 98.71875 72.535156 Z M 102.808594 72.535156 "/><path fill-rule="nonzero" fill="currentColor" d="M 119.617188 85.816406 C 120.964844 85.816406 122.078125 85.300781 122.953125 84.277344 C 123.828125 83.25 124.265625 81.828125 124.265625 80.011719 C 124.265625 78.195312 123.828125 76.777344 122.953125 75.753906 C 122.078125 74.738281 120.964844 74.226562 119.617188 74.226562 C 118.253906 74.226562 117.136719 74.738281 116.261719 75.753906 C 115.386719 76.777344 114.949219 78.195312 114.949219 80.011719 C 114.949219 81.828125 115.386719 83.25 116.261719 84.277344 C 117.136719 85.300781 118.253906 85.816406 119.617188 85.816406 M 119.617188 87.777344 C 117.457031 87.777344 115.734375 87.0625 114.453125 85.628906 C 113.171875 84.195312 112.535156 82.324219 112.535156 80.011719 C 112.535156 77.710938 113.171875 75.847656 114.453125 74.414062 C 115.734375 72.980469 117.457031 72.265625 119.617188 72.265625 C 121.765625 72.265625 123.480469 72.980469 124.761719 74.414062 C 126.039062 75.847656 126.679688 77.710938 126.679688 80.011719 C 126.679688 82.324219 126.039062 84.195312 124.761719 85.628906 C 123.480469 87.0625 121.765625 87.777344 119.617188 87.777344 "/><path fill-rule="nonzero" fill="currentColor" d="M 140.425781 84.636719 L 142.945312 72.535156 L 145.425781 72.535156 L 141.808594 87.507812 L 138.980469 87.507812 L 136.273438 75.589844 L 133.609375 87.507812 L 130.78125 87.507812 L 127.105469 72.535156 L 129.6875 72.535156 L 132.332031 84.636719 L 134.910156 72.535156 L 137.660156 72.535156 Z M 140.425781 84.636719 "/><path fill-rule="nonzero" fill="currentColor" d="M 150.375 80.570312 C 149.175781 80.320312 148.1875 79.859375 147.402344 79.183594 C 146.617188 78.511719 146.222656 77.585938 146.222656 76.417969 C 146.222656 75.523438 146.507812 74.75 147.082031 74.105469 C 147.652344 73.457031 148.34375 72.988281 149.15625 72.699219 C 149.96875 72.410156 150.816406 72.265625 151.699219 72.265625 C 153.15625 72.265625 154.402344 72.621094 155.433594 73.328125 C 156.46875 74.039062 157.121094 75.109375 157.398438 76.539062 L 155.125 76.539062 C 154.90625 75.730469 154.46875 75.140625 153.8125 74.773438 C 153.160156 74.410156 152.421875 74.226562 151.59375 74.226562 C 150.890625 74.226562 150.21875 74.402344 149.582031 74.746094 C 148.9375 75.089844 148.621094 75.613281 148.621094 76.3125 C 148.621094 77.429688 149.375 78.144531 150.890625 78.460938 L 152.667969 78.832031 C 153.371094 78.984375 153.976562 79.152344 154.484375 79.328125 C 154.996094 79.507812 155.515625 79.757812 156.046875 80.082031 C 156.574219 80.40625 156.980469 80.835938 157.261719 81.375 C 157.546875 81.910156 157.6875 82.539062 157.6875 83.253906 C 157.6875 84.65625 157.121094 85.765625 155.984375 86.570312 C 154.847656 87.375 153.496094 87.777344 151.925781 87.777344 C 150.1875 87.777344 148.773438 87.324219 147.679688 86.425781 C 146.585938 85.523438 145.949219 84.285156 145.769531 82.714844 L 148.082031 82.714844 C 148.523438 84.78125 149.832031 85.816406 152.007812 85.816406 C 152.984375 85.816406 153.78125 85.597656 154.390625 85.164062 C 155.003906 84.730469 155.3125 84.15625 155.3125 83.441406 C 155.3125 82.199219 154.28125 81.367188 152.214844 80.941406 Z M 150.375 80.570312 "/></svg>